<svg width="60" height="60" viewBox="0 0 60 60" fill="none" xmlns="http://www.w3.org/2000/svg">
<path fill-rule="evenodd" clip-rule="evenodd" d="M9.05086 40.4585V36.6541C9.05086 36.1542 9.36586 35.7526 9.88758 35.7526H10.032C10.5534 35.7526 10.867 36.1547 10.867 36.6541V44.6635C10.867 46.6167 9.89438 48.1708 8.19938 49.1608C7.42293 49.6172 6.53663 49.857 5.63415 49.8549H5.27391C3.30469 49.8549 1.74024 48.8893 0.740631 47.2089C0.279967 46.4387 0.0382777 45.5591 0.0412565 44.6635V44.3066C0.0412565 42.3528 1.01438 40.7996 2.70797 39.8077C3.48428 39.3504 4.37107 39.1105 5.27391 39.1136H5.63415C6.9668 39.1136 8.09743 39.6261 9.05086 40.4585V40.4585ZM1.85719 44.4847C1.85719 45.8956 2.54649 46.9564 3.79266 47.633C4.29657 47.9064 4.8436 48.0534 5.41852 48.0534C6.81446 48.0534 7.84993 47.4 8.56407 46.2265C8.89618 45.6806 9.05086 45.0832 9.05086 44.4482C9.05086 43.2252 8.46727 42.2707 7.47376 41.5618C6.87141 41.1321 6.19337 40.9166 5.45391 40.9166C3.93235 40.9166 2.83735 41.6792 2.18016 43.0338C1.95844 43.4919 1.85719 43.9781 1.85719 44.4847V44.4847ZM17.1675 39.1136H17.4192C19.5234 39.1136 21.1238 40.1262 22.1379 41.9485C22.5434 42.6774 22.7604 43.4731 22.7604 44.3066V44.6635C22.7604 46.6167 21.7896 48.1729 20.092 49.1611C19.3062 49.6184 18.4381 49.8549 17.5273 49.8549H17.1675C15.1983 49.8549 13.6334 48.8893 12.6342 47.2089C12.1733 46.4388 11.9314 45.5591 11.9341 44.6635V44.3066C11.9341 42.3526 12.9113 40.8045 14.6006 39.8082C15.386 39.3452 16.2548 39.1136 17.1675 39.1136ZM13.7503 44.4847C13.7503 45.8542 14.4277 46.8617 15.5937 47.5702C16.1412 47.9027 16.7442 48.0534 17.3838 48.0534C18.7479 48.0534 19.7562 47.3672 20.4579 46.2251C20.7926 45.6806 20.944 45.0823 20.944 44.4482C20.944 43.1747 20.3257 42.2019 19.2687 41.4969C18.6895 41.1102 18.0448 40.9166 17.3473 40.9166C15.8257 40.9166 14.7307 41.6792 14.0738 43.0338C13.8516 43.4919 13.7503 43.9781 13.7503 44.4847V44.4847ZM30.3103 41.0605C30.0361 40.9331 29.5228 40.8907 29.2266 40.8796C27.7092 40.8229 26.6114 41.6706 25.9673 42.9985C25.7449 43.4566 25.6434 43.9413 25.6434 44.4482C25.6434 45.9914 26.4602 47.0719 27.8487 47.7306C28.3559 47.9711 29.0107 48.0166 29.565 48.0166C30.0525 48.0166 30.7416 47.7204 31.1742 47.5165L31.2492 47.4811H31.5851L31.6221 47.4886C32.0351 47.5739 32.3468 47.8336 32.3468 48.2745V48.4528C32.3468 49.5498 30.326 49.801 29.5549 49.8544C26.8338 50.0411 24.7988 48.5586 24.023 45.9838C23.8882 45.5366 23.8275 45.0925 23.8275 44.6266V44.2701C23.8275 42.3163 24.8048 40.7687 26.494 39.7733C27.2794 39.3106 28.148 39.0781 29.0604 39.0781H29.4204C30.3884 39.0781 31.2799 39.3508 32.0791 39.8923L32.1448 39.9374L32.1863 40.0053C32.2725 40.1472 32.3468 40.3113 32.3468 40.4801V40.6585C32.3468 41.1184 31.9999 41.3658 31.5813 41.4458L31.5466 41.4518H31.4393C31.1684 41.4518 30.5522 41.1735 30.3103 41.0605V41.0605ZM36.2011 42.2805C36.9066 41.5797 37.6144 40.8803 38.3304 40.1911C38.5298 39.9988 39.2852 39.185 39.5827 39.185H39.908L39.945 39.1927C40.3594 39.278 40.6697 39.5382 40.6697 39.98V40.1581C40.6697 40.4594 40.3139 40.8096 40.1177 41.0158C39.7005 41.4546 39.2613 41.8789 38.8343 42.3086L36.6401 44.5184C37.5848 45.4578 38.5287 46.3979 39.4657 47.3444C39.7256 47.6057 39.9835 47.8689 40.2394 48.1341C40.3296 48.2282 40.4627 48.3454 40.5384 48.4758C40.6198 48.5982 40.6697 48.736 40.6697 48.8832V49.0692L40.6591 49.1122C40.5572 49.5233 40.2942 49.8549 39.8351 49.8549H39.6905C39.39 49.8549 39.0506 49.5177 38.8448 49.325C38.4206 48.9283 38.0112 48.5112 37.5954 48.1059L36.2011 46.748V48.9183C36.2011 49.4182 35.8856 49.82 35.3646 49.82H35.2216C34.6999 49.82 34.3849 49.4182 34.3849 48.9183V36.689C34.3849 36.1891 34.7002 35.7891 35.2216 35.7891H35.3646C35.8856 35.7891 36.2011 36.1891 36.2011 36.689V42.2805V42.2805ZM58.8363 39.185H59.0168C59.5615 39.185 59.925 39.5491 59.925 40.0865C59.925 40.8324 59.2062 41.0233 58.5844 41.0233C57.7687 41.0233 56.9899 41.5132 56.4277 42.0626C55.7266 42.7483 55.4198 43.6265 55.4198 44.5919V48.9537C55.4198 49.4536 55.1051 49.8549 54.5831 49.8549H54.4397C53.9177 49.8549 53.6032 49.4538 53.6032 48.9537V44.3415C53.6032 42.5704 54.4723 41.1247 55.9212 40.1107C56.7862 39.505 57.7772 39.1853 58.8363 39.1853V39.185ZM45.9284 47.829C46.5893 48.058 47.3428 48.0252 48.0209 47.908C48.3677 47.7618 49.2546 47.3779 49.5809 47.4342L49.6317 47.4428L49.6786 47.4656C49.8778 47.5614 50.0679 47.6969 50.1696 47.898C50.4073 48.3694 50.2931 48.8432 49.8262 49.1108L49.6709 49.1999C47.9482 50.1862 46.1159 50.0495 44.3986 49.1283C43.5776 48.6879 42.9495 48.0343 42.4861 47.2375L42.3778 47.0512C41.2718 45.1511 41.4211 43.1524 42.6684 41.3455C43.099 40.721 43.6617 40.2385 44.3196 39.8612L44.5685 39.7186C46.1909 38.7895 47.9297 38.8532 49.5959 39.6687C50.4919 40.1072 51.2177 40.7608 51.7179 41.6204L51.8079 41.7752C52.1712 42.3998 51.7005 42.9439 51.2147 43.3159C50.6508 43.7474 50.0815 44.2669 49.541 44.7296C48.3359 45.7617 47.1326 46.7962 45.9284 47.829V47.829ZM44.3686 46.7422C45.7162 45.5959 47.0644 44.4485 48.4085 43.2973C48.8679 42.9043 49.3716 42.4965 49.8272 42.0833C49.4616 41.6262 48.8508 41.2967 48.3319 41.1002C47.2842 40.7043 46.2513 40.8373 45.2906 41.3874C44.0332 42.1077 43.4977 43.2547 43.5445 44.6821C43.5633 45.2444 43.7156 45.7861 44.0163 46.2644C44.1223 46.433 44.2406 46.5913 44.3686 46.7422ZM34.5675 10.638H39.9267V16.073H42.6363C43.8879 16.073 45.1748 15.8519 46.3598 15.4536C46.9423 15.2576 47.5957 14.9851 48.1702 14.6421C47.4136 13.6623 47.0273 12.4251 46.9139 11.2056C46.7592 9.54658 47.0967 7.38745 48.2283 6.08909L48.7917 5.4427L49.463 5.97818C51.153 7.32514 52.5745 9.20758 52.8251 11.3535C54.8602 10.7596 57.2496 10.9001 59.0433 11.9271L59.7792 12.3484L59.392 13.0985C57.8749 16.0356 54.7031 16.9457 51.6023 16.7845C46.9624 28.2496 36.8606 33.6774 24.6124 33.6774C18.2843 33.6774 12.4788 31.3307 9.17274 25.761L9.1186 25.6703L8.63696 24.6979C7.51946 22.2463 7.14821 19.5605 7.39993 16.8768L7.47563 16.073H12.0586V10.638H17.4176V5.32132H28.1363V0.00463867H34.5675V10.638Z" fill="#1A7284"/>
<path fill-rule="evenodd" clip-rule="evenodd" d="M51.9305 12.6488C52.2898 9.8781 50.1998 7.702 48.9038 6.6687C47.4101 8.38187 47.1781 12.8717 49.5213 14.7621C48.2135 15.9144 45.458 16.9589 42.6363 16.9589H8.28985C8.01563 19.8809 8.53266 22.5718 9.71368 24.8748L10.1044 25.584C10.3518 26.0003 10.6221 26.4027 10.9141 26.7894C12.3263 26.8794 13.6282 26.9103 14.8193 26.8842H14.8198C17.1605 26.8331 19.0704 26.5587 20.5179 26.0611C20.6202 26.0296 20.7309 26.0387 20.8266 26.0866C20.9222 26.1346 20.9954 26.2176 21.0305 26.318C21.0656 26.4185 21.0599 26.5285 21.0147 26.6249C20.9694 26.7213 20.8882 26.7965 20.7881 26.8345C20.5955 26.901 20.3948 26.9628 20.1877 27.0217H20.187C19.0472 27.3446 17.8249 27.5618 16.2481 27.6583C16.3418 27.6599 16.1506 27.6722 16.1501 27.6722C16.0964 27.6757 16.0289 27.6834 15.975 27.6862C15.3544 27.7208 14.6845 27.728 13.9997 27.728C13.2506 27.728 12.5131 27.7141 11.6883 27.6722L11.6672 27.6862C14.5289 30.8772 19.0036 32.7911 24.6127 32.7911C36.4833 32.7911 46.552 27.5706 51.0108 15.8507C54.1739 16.1727 57.214 15.3724 58.5968 12.6943C56.3941 11.4334 53.5615 11.8354 51.9305 12.6488" fill="#22A0C8"/>
<path fill-rule="evenodd" clip-rule="evenodd" d="M51.9305 12.6488C52.2898 9.8781 50.1999 7.702 48.9038 6.6687C47.4101 8.38187 47.1781 12.8717 49.5213 14.7621C48.2135 15.9144 45.458 16.9589 42.6363 16.9589H10.3238C10.1836 21.4339 11.8575 24.8307 14.8191 26.8842H14.8198C17.1605 26.8331 19.0704 26.5587 20.5179 26.0611C20.6202 26.0296 20.7309 26.0387 20.8266 26.0866C20.9222 26.1346 20.9954 26.2176 21.0305 26.318C21.0656 26.4185 21.0599 26.5285 21.0147 26.6249C20.9695 26.7213 20.8882 26.7965 20.7881 26.8345C20.5955 26.901 20.3949 26.9628 20.1877 27.0217H20.187C19.0472 27.3446 17.7199 27.5897 16.1431 27.6862C16.1426 27.6862 16.1049 27.6501 16.1044 27.6501C20.1443 29.706 26.002 29.6986 32.7181 27.1393C40.2485 24.2691 47.2561 18.8013 52.1454 12.5474C52.0718 12.5804 52.0001 12.6141 51.9305 12.6488" fill="#37B1D9"/>
<path fill-rule="evenodd" clip-rule="evenodd" d="M8.35431 20.5093C8.56759 22.0746 9.02931 23.5401 9.71368 24.875L10.1044 25.5841C10.3517 26.0004 10.6221 26.4028 10.9142 26.7895C12.3265 26.8795 13.6284 26.9104 14.8198 26.8844C17.1605 26.8332 19.0704 26.5589 20.5179 26.0613C20.6202 26.0297 20.7309 26.0388 20.8266 26.0868C20.9222 26.1347 20.9954 26.2177 21.0305 26.3181C21.0656 26.4186 21.0599 26.5286 21.0147 26.625C20.9695 26.7214 20.8882 26.7966 20.7881 26.8346C20.5955 26.9011 20.3949 26.963 20.1877 27.0218H20.187C19.0472 27.3448 17.727 27.5759 16.1501 27.6726C16.0959 27.6759 16.0015 27.6765 15.9469 27.6796C15.3267 27.714 14.6637 27.7351 13.9786 27.7351C13.2298 27.7351 12.4638 27.721 11.6395 27.6793C14.5013 30.8704 19.0036 32.7912 24.6127 32.7912C34.7752 32.7912 43.6167 28.9644 48.7484 20.5093H8.35431Z" fill="#1B81A5"/>
<path fill-rule="evenodd" clip-rule="evenodd" d="M10.6329 20.5093C11.2404 23.2576 12.7003 25.4151 14.8198 26.8844C17.1605 26.8332 19.0704 26.5589 20.5179 26.0613C20.6202 26.0297 20.7309 26.0388 20.8266 26.0868C20.9222 26.1347 20.9954 26.2177 21.0305 26.3181C21.0656 26.4186 21.0599 26.5286 21.0147 26.625C20.9695 26.7214 20.8882 26.7966 20.7881 26.8346C20.5955 26.9011 20.3949 26.963 20.1877 27.0218H20.187C19.0472 27.3448 17.6991 27.5759 16.122 27.6726C20.1617 29.728 26.0025 29.6985 32.7181 27.1394C36.7807 25.5909 40.6908 23.2857 44.1987 20.5093H10.6329Z" fill="#1D91B4"/>
<path fill-rule="evenodd" clip-rule="evenodd" d="M12.9516 11.5242H17.5964V16.1322H12.9516V11.5242ZM13.3385 11.9083H13.7051V15.7483H13.3385V11.9083ZM14.0276 11.9083H14.4089V15.7483H14.0278V11.9083H14.0276ZM14.7312 11.9083H15.1125V15.7483H14.7312V11.9083ZM15.4352 11.9083H15.8163V15.7483H15.4352V11.9083ZM16.1391 11.9083H16.5202V15.7483H16.1391V11.9083ZM16.8427 11.9083H17.2095V15.7483H16.8427V11.9083ZM18.3108 6.20752H22.9559V10.8153H18.3106V6.20752H18.3108ZM18.698 6.59163H19.0643V10.4314H18.698V6.59163ZM19.387 6.59163H19.7681V10.4314H19.3873V6.59163H19.387ZM20.0906 6.59163H20.4717V10.4314H20.0906V6.59163ZM20.7945 6.59163H21.1756V10.4314H20.7945V6.59163ZM21.4983 6.59163H21.8796V10.4314H21.4983V6.59163ZM22.2019 6.59163H22.5689V10.4314H22.2019V6.59163Z" fill="#23A3C2"/>
<path fill-rule="evenodd" clip-rule="evenodd" d="M18.3108 11.5242H22.9559V16.1322H18.3105V11.5242H18.3108ZM18.698 11.9083H19.0643V15.7483H18.698V11.9083ZM19.387 11.9083H19.7681V15.7483H19.3873V11.9083H19.387ZM20.0906 11.9083H20.4717V15.7483H20.0906V11.9083ZM20.7945 11.9083H21.1755V15.7483H20.7945V11.9083ZM21.4983 11.9083H21.8796V15.7483H21.4983V11.9083ZM22.2019 11.9083H22.5689V15.7483H22.2019V11.9083Z" fill="#34BBDE"/>
<path fill-rule="evenodd" clip-rule="evenodd" d="M23.6702 11.5242H28.3151V16.1322H23.6702V11.5242ZM24.0572 11.9083H24.4235V15.7483H24.0572V11.9083ZM24.7462 11.9083H25.1273V15.7483H24.7462V11.9083ZM25.4501 11.9083H25.8312V15.7483H25.4501V11.9083ZM26.1539 11.9083H26.535V15.7483H26.1539V11.9083ZM26.8575 11.9083H27.2391V15.7483H26.8575V11.9083ZM27.5613 11.9083H27.9279V15.7483H27.5613V11.9083V11.9083Z" fill="#23A3C2"/>
<path fill-rule="evenodd" clip-rule="evenodd" d="M23.6702 6.20752H28.3151V10.8153H23.6702V6.20752ZM24.0572 6.59163H24.4235V10.4314H24.0572V6.59163ZM24.7462 6.59163H25.1273V10.4314H24.7462V6.59163ZM25.4501 6.59163H25.8312V10.4314H25.4501V6.59163ZM26.1539 6.59163H26.535V10.4314H26.1539V6.59163ZM26.8575 6.59163H27.2391V10.4314H26.8575V6.59163ZM27.5613 6.59163H27.9279V10.4314H27.5613V6.59163V6.59163ZM29.0294 11.5242H33.6743V16.1322H29.0294V11.5242ZM29.4166 11.9083H29.783V15.7483H29.4166V11.9083ZM30.1057 11.9083H30.4868V15.7483H30.1057V11.9083ZM30.8093 11.9083H31.1904V15.7483H30.8093V11.9083ZM31.5131 11.9083H31.8944V15.7483H31.5131V11.9083ZM32.2169 11.9083H32.5983V15.7483H32.2169V11.9083ZM32.9208 11.9083H33.2873V15.7483H32.9208V11.9083Z" fill="#34BBDE"/>
<path fill-rule="evenodd" clip-rule="evenodd" d="M29.0294 6.20752H33.6743V10.8153H29.0294V6.20752ZM29.4166 6.59163H29.783V10.4314H29.4166V6.59163ZM30.1057 6.59163H30.4868V10.4314H30.1057V6.59163ZM30.8093 6.59163H31.1904V10.4314H30.8093V6.59163ZM31.5131 6.59163H31.8944V10.4314H31.5131V6.59163ZM32.2169 6.59163H32.5983V10.4314H32.2169V6.59163ZM32.9208 6.59163H33.2873V10.4314H32.9208V6.59163Z" fill="#23A3C2"/>
<path fill-rule="evenodd" clip-rule="evenodd" d="M29.0294 0.890625H33.6743V5.49907H29.0294V0.890625ZM29.4166 1.27451H29.783V5.11472H29.4166V1.27427V1.27451ZM30.1057 1.27451H30.4868V5.11472H30.1057V1.27427V1.27451ZM30.8093 1.27451H31.1904V5.11472H30.8093V1.27427V1.27451ZM31.5131 1.27451H31.8944V5.11472H31.5131V1.27427V1.27451ZM32.2169 1.27451H32.5983V5.11472H32.2169V1.27427V1.27451ZM32.9208 1.27451H33.2873V5.11472H32.9208V1.27427V1.27451Z" fill="#34BBDE"/>
<path fill-rule="evenodd" clip-rule="evenodd" d="M34.3887 11.5242H39.0335V16.1322H34.3887V11.5242ZM34.7754 11.9083H35.1422V15.7483H34.7756V11.9083H34.7754ZM35.4645 11.9083H35.8458V15.7483H35.4647V11.9083H35.4645ZM36.1685 11.9083H36.5498V15.7483H36.1685V11.9083ZM36.8721 11.9083H37.2534V15.7483H36.8721V11.9083ZM37.5762 11.9083H37.9573V15.7483H37.5762V11.9083ZM38.2798 11.9083H38.6463V15.7483H38.2798V11.9083Z" fill="#23A3C2"/>
<path fill-rule="evenodd" clip-rule="evenodd" d="M22.665 23.6031C22.8348 23.6009 23.0033 23.6321 23.1607 23.695C23.3182 23.7579 23.4615 23.8512 23.5823 23.9695C23.7031 24.0878 23.7991 24.2287 23.8645 24.3841C23.93 24.5395 23.9637 24.7062 23.9637 24.8747C23.9636 25.0431 23.9299 25.2098 23.8644 25.3651C23.7988 25.5205 23.7029 25.6614 23.582 25.7797C23.4611 25.8979 23.3178 25.9912 23.1603 26.054C23.0028 26.1168 22.8343 26.148 22.6645 26.1457C22.3277 26.1411 22.0062 26.0051 21.7696 25.7672C21.5331 25.5292 21.4005 25.2084 21.4005 24.8742C21.4006 24.54 21.5333 24.2192 21.77 23.9813C22.0066 23.7435 22.3282 23.6076 22.665 23.6031Z" fill="#D3ECEC"/>
<path fill-rule="evenodd" clip-rule="evenodd" d="M22.665 23.9638C22.7822 23.9638 22.894 23.9857 22.9971 24.0254C22.9259 24.0664 22.8704 24.1295 22.839 24.205C22.8076 24.2804 22.8021 24.364 22.8234 24.4429C22.8446 24.5217 22.8915 24.5914 22.9567 24.6412C23.0219 24.691 23.1019 24.7181 23.1841 24.7183C23.3259 24.7183 23.449 24.6404 23.5127 24.5251C23.5882 24.7055 23.6032 24.9052 23.5555 25.0947C23.5078 25.2841 23.3999 25.4534 23.2478 25.5774C23.0957 25.7014 22.9075 25.7736 22.7108 25.7833C22.5142 25.793 22.3197 25.7397 22.1559 25.6313C21.9922 25.5228 21.8679 25.365 21.8015 25.1812C21.7351 24.9973 21.73 24.7971 21.7871 24.6102C21.8442 24.4233 21.9603 24.2595 22.1184 24.1431C22.2765 24.0267 22.4681 23.9639 22.665 23.9638V23.9638ZM0 20.9688H59.6079C58.3102 20.6423 55.5016 20.201 55.9648 18.5134C53.6046 21.2227 47.9133 20.4142 46.4768 19.0784C44.8774 21.3799 35.5657 20.5049 34.9162 18.712C32.9109 21.0467 26.6974 21.0467 24.6921 18.712C24.0422 20.5049 14.7307 21.3799 13.1311 19.0782C11.6948 20.4142 6.00375 21.2227 3.64359 18.5137C4.10672 20.201 1.2982 20.6423 0 20.969" fill="#364548"/>
<path fill-rule="evenodd" clip-rule="evenodd" d="M26.0712 32.7637C22.8977 31.2698 21.1561 29.2388 20.187 27.022C19.0081 27.3556 17.5913 27.5691 15.9448 27.6607C15.3246 27.6951 14.6721 27.7128 13.9877 27.7128C13.1984 27.7128 12.3666 27.6895 11.4933 27.6437C14.4035 30.5292 17.9836 32.7507 24.6127 32.7911C25.102 32.7911 25.5877 32.7818 26.0712 32.7637" fill="#BDD9D7"/>
<path fill-rule="evenodd" clip-rule="evenodd" d="M21.3656 29.0676C20.9266 28.4763 20.5008 27.7332 20.1877 27.0215C19.0087 27.3556 17.5915 27.5691 15.9448 27.6609C17.0759 28.2699 18.6933 28.8342 21.3659 29.0676" fill="#D3ECEC"/>
</svg>
