<svg width="120" height="50" viewBox="0 0 120 50" fill="none" xmlns="http://www.w3.org/2000/svg">
<path d="M0.780938 38.793V19.6839H17.4553V18.5662H0.780938V1.13328H18.5095V0.0158691H0V39.9104H18.6656V38.793H0.781172H0.780938ZM33.7001 11.1907L26.7884 24.2096L20.0325 11.191H19.0172L26.3196 25.048L18.3141 39.9101H19.2513L26.7879 25.8854L34.3636 39.9101H35.3398L27.2955 25.0473L34.6369 11.1903H33.6998L33.7001 11.1907ZM37.683 49.7444V31.8648H37.7611C38.2298 34.4722 39.154 36.5675 40.5338 38.1508C41.9135 39.7337 43.6706 40.5254 45.8053 40.5254C47.1851 40.5254 48.4088 40.125 49.4761 39.3242C50.5434 38.5233 51.435 37.4338 52.151 36.0555C52.8668 34.6771 53.4136 33.0755 53.7912 31.2501C54.1685 29.4251 54.3574 27.5065 54.3574 25.4954C54.3574 23.3347 54.162 21.3416 53.7715 19.5166C53.381 17.6912 52.8148 16.108 52.073 14.7673C51.3309 13.4262 50.4328 12.3829 49.3784 11.6384C48.3241 10.8932 47.133 10.5206 45.8053 10.5206C44.79 10.5206 43.8464 10.7349 42.9743 11.1632C42.1022 11.5918 41.3278 12.1967 40.6509 12.9791C39.9701 13.7675 39.3775 14.7002 38.8936 15.7448C38.3991 16.8066 38.0215 17.9706 37.7611 19.2372H37.683V11.1907H36.9021V49.7444H37.683V49.7444ZM45.8053 39.4634C43.3584 39.4634 41.3927 38.2621 39.9089 35.8596C38.4251 33.4571 37.683 30.0019 37.683 25.4947C37.683 23.6321 37.8654 21.8628 38.2298 20.1866C38.5943 18.5105 39.1214 17.039 39.8112 15.7727C40.5012 14.506 41.3538 13.5003 42.3689 12.7554C43.3842 12.0103 44.5298 11.6377 45.8053 11.6377C47.107 11.6377 48.2461 12.0103 49.2223 12.7554C50.1984 13.5003 51.0056 14.5154 51.6434 15.8005C52.2811 17.0856 52.7627 18.5571 53.0883 20.2145C53.4136 21.8722 53.5762 23.6321 53.5762 25.4947C53.5762 27.1711 53.4267 28.8382 53.1272 30.4956C52.8279 32.1532 52.3657 33.6432 51.7409 34.9659C51.1163 36.2879 50.3159 37.368 49.3395 38.2064C48.363 39.0445 47.1851 39.4634 45.8053 39.4634V39.4634ZM58.6528 39.9104V23.6509C58.6528 22.0864 58.8089 20.5589 59.1216 19.0692C59.4337 17.5792 59.9154 16.266 60.5662 15.1301C61.2171 13.9939 62.0435 13.0999 63.0459 12.4479C64.0481 11.796 65.2392 11.526 66.619 11.6377V10.5203C65.4213 10.4834 64.3737 10.6692 63.4755 11.079C62.5772 11.4888 61.8028 12.0475 61.152 12.7554C60.5011 13.4631 59.9805 14.2917 59.5901 15.2418C59.1999 16.1904 58.9103 17.2166 58.7309 18.2868H58.6528V11.1907H57.8719V39.9107H58.6528V39.9104ZM67.5952 25.774H84.3865C84.4388 23.7998 84.3021 21.9003 83.9766 20.075C83.6512 18.2496 83.1305 16.6292 82.4147 15.214C81.6987 13.7984 80.7745 12.6622 79.642 11.8054C78.5095 10.9485 77.1623 10.5203 75.6005 10.5203C74.4809 10.5203 73.3875 10.8556 72.3202 11.5264C71.2528 12.1967 70.3155 13.1743 69.5086 14.4594C68.7016 15.7445 68.0508 17.3183 67.5562 19.1812C67.0617 21.0435 66.8142 23.1666 66.8142 25.5507C66.8142 27.6738 66.9834 29.6575 67.3219 31.5013C67.6603 33.3451 68.1809 34.9471 68.8837 36.3066C69.5869 37.6662 70.4916 38.7185 71.5978 39.4634C72.7041 40.2085 74.0384 40.5623 75.6005 40.5251C77.8913 40.5251 79.8178 39.6029 81.3797 37.7594C82.9418 35.9153 83.8659 33.3173 84.1523 29.9647H83.3714C83.033 33.1311 82.1672 35.5058 80.7745 37.0887C79.3816 38.6719 77.6311 39.4634 75.5222 39.4634C74.0904 39.4634 72.8798 39.1096 71.8905 38.402C70.9015 37.6943 70.0943 36.7255 69.4695 35.4964C68.8448 34.267 68.3827 32.8236 68.0834 31.1659C67.7838 29.5086 67.6212 27.7111 67.5952 25.774ZM83.6055 24.6566H67.5954C67.6732 22.6452 67.9336 20.8386 68.3761 19.2369C68.8188 17.6349 69.398 16.266 70.114 15.1301C70.8298 13.9939 71.663 13.128 72.6131 12.5318C73.5633 11.9358 74.5852 11.6377 75.6785 11.6377C76.9802 11.6377 78.1254 11.9824 79.1149 12.6716C80.104 13.3608 80.9306 14.3014 81.5946 15.4933C82.2584 16.6852 82.7595 18.0729 83.0979 19.6558C83.4363 21.239 83.6055 22.9061 83.6055 24.6566ZM100.592 19.6839H101.373C101.373 16.4803 100.722 14.1522 99.4209 12.6994C98.119 11.2467 96.3488 10.5203 94.11 10.5203C92.8603 10.5203 91.8061 10.744 90.9469 11.191C90.0879 11.6377 89.385 12.2152 88.8382 12.9228C88.2916 13.6304 87.9012 14.4128 87.6668 15.2696C87.4324 16.1265 87.3152 16.9461 87.3152 17.7281C87.3152 19.2926 87.5105 20.5404 87.9012 21.4717C88.2916 22.403 88.9034 23.1294 89.7363 23.6509C90.3091 24.0231 90.9598 24.3585 91.6889 24.657C92.4178 24.9548 93.2639 25.2713 94.2272 25.6064C95.0862 25.9048 95.9323 26.2026 96.7655 26.5004C97.5984 26.7986 98.3339 27.199 98.9716 27.7017C99.6096 28.2047 100.13 28.8473 100.534 29.6297C100.937 30.4117 101.139 31.4362 101.139 32.7025C101.139 33.932 100.937 34.9749 100.534 35.8314C100.134 36.6838 99.6069 37.3994 98.9913 37.9271C98.3665 38.467 97.6699 38.858 96.9021 39.1002C96.1341 39.3423 95.3857 39.4634 94.6568 39.4634C92.2877 39.4634 90.4718 38.7091 89.2092 37.2007C87.9466 35.6919 87.3155 33.3173 87.3155 30.0764H86.5343C86.5343 33.6898 87.2177 36.3345 88.5844 38.0109C89.9512 39.687 91.9753 40.5251 94.6568 40.5251C95.5158 40.5251 96.3813 40.3853 97.2537 40.1059C98.1255 39.8266 98.9067 39.3705 99.5965 38.737C100.28 38.1125 100.855 37.2714 101.276 36.2788C101.705 35.2727 101.92 34.0436 101.92 32.5909C101.92 31.2125 101.731 30.0951 101.354 29.2383C100.976 28.3818 100.482 27.6738 99.8698 27.1151C99.258 26.5564 98.5683 26.1188 97.8002 25.8022C97.0279 25.4838 96.2533 25.1763 95.4766 24.88C94.5208 24.5212 93.5641 24.1674 92.6065 23.8186C91.7866 23.5204 91.0252 23.1666 90.3223 22.7568C89.6454 22.347 89.1052 21.7605 88.7016 20.9969C88.298 20.2333 88.0964 19.1437 88.0964 17.7281C88.0964 17.4676 88.1484 17.0018 88.2525 16.3314C88.3566 15.6607 88.6041 14.9809 88.9945 14.2917C89.385 13.6029 89.9836 12.9882 90.7908 12.4479C91.5977 11.908 92.7042 11.6377 94.11 11.6377C95.0733 11.6377 95.9517 11.7869 96.7458 12.0847C97.5398 12.3829 98.2233 12.8577 98.7959 13.5097C99.3687 14.1616 99.8112 14.9903 100.124 15.996C100.436 17.0021 100.592 18.2312 100.592 19.6839V19.6839ZM118.672 19.6839H119.453C119.453 16.4803 118.803 14.1522 117.501 12.6994C116.199 11.2467 114.429 10.5203 112.19 10.5203C110.94 10.5203 109.886 10.744 109.027 11.191C108.168 11.6377 107.465 12.2152 106.918 12.9228C106.372 13.6304 105.981 14.4128 105.747 15.2696C105.512 16.1265 105.395 16.9461 105.395 17.7281C105.395 19.2926 105.591 20.5404 105.981 21.4717C106.372 22.403 106.984 23.1294 107.816 23.6509C108.389 24.0231 109.04 24.3585 109.769 24.657C110.498 24.9548 111.344 25.2713 112.307 25.6064C113.166 25.9048 114.012 26.2026 114.845 26.5004C115.679 26.7986 116.414 27.199 117.052 27.7017C117.69 28.2047 118.21 28.8473 118.614 29.6297C119.017 30.4117 119.219 31.4362 119.219 32.7025C119.219 33.932 119.017 34.9749 118.614 35.8314C118.214 36.6838 117.687 37.3993 117.071 37.9271C116.446 38.467 115.75 38.858 114.982 39.1002C114.214 39.3423 113.466 39.4634 112.737 39.4634C110.368 39.4634 108.552 38.7091 107.289 37.2007C106.027 35.6919 105.395 33.3173 105.395 30.0764H104.614C104.614 33.6898 105.298 36.3345 106.665 38.0109C108.031 39.687 110.055 40.5251 112.737 40.5251C113.596 40.5251 114.461 40.3853 115.334 40.1059C116.205 39.8266 116.987 39.3705 117.677 38.737C118.361 38.1125 118.935 37.2714 119.356 36.2788C119.785 35.2727 120 34.0436 120 32.5909C120 31.2125 119.811 30.0951 119.434 29.2383C119.056 28.3818 118.562 27.6738 117.95 27.1151C117.338 26.5564 116.648 26.1188 115.88 25.8022C115.108 25.4838 114.333 25.1763 113.557 24.88C112.601 24.5212 111.644 24.1674 110.687 23.8186C109.867 23.5204 109.105 23.1666 108.402 22.7568C107.725 22.347 107.185 21.7605 106.782 20.9969C106.378 20.2333 106.176 19.1437 106.176 17.7281C106.176 17.4676 106.228 17.0018 106.333 16.3314C106.437 15.6607 106.684 14.9809 107.074 14.2917C107.465 13.6029 108.064 12.9882 108.871 12.4479C109.678 11.908 110.784 11.6377 112.19 11.6377C113.153 11.6377 114.032 11.7869 114.826 12.0847C115.62 12.3829 116.303 12.8577 116.876 13.5097C117.449 14.1616 117.891 14.9903 118.204 15.996C118.516 17.0021 118.672 18.2312 118.672 19.6839H118.672Z" fill="#B2F0FF"/>
</svg>
