<svg width="35" height="37" viewBox="0 0 35 37" fill="none" xmlns="http://www.w3.org/2000/svg">
<g clip-path="url(#clip0_32_48)">
<path d="M32.7675 0H2.23578C1.00056 0 0 1.05763 0 2.36331V34.6367C0 35.9389 1.00056 37 2.23578 37H32.7675C33.9994 37 35.0033 35.9424 35.0033 34.6367V2.35987C35 1.05763 33.9994 0 32.7675 0ZM15.8916 20.853C15.8916 21.8796 15.8004 22.7581 15.6146 23.4816C15.4288 24.205 15.1485 24.7838 14.777 25.2385C14.4022 25.6864 13.9361 26.0171 13.3788 26.2238C12.8215 26.434 12.1729 26.5373 11.4331 26.5373C10.7813 26.5373 10.1946 26.4271 9.66664 26.2135C8.63349 25.8035 7.82522 24.925 7.46997 23.8226C7.26138 23.206 7.16035 22.5583 7.17013 21.9037V21.4421H9.26576C9.26576 23.5057 9.98929 24.5392 11.4364 24.5392C11.8079 24.5392 12.1338 24.4944 12.4271 24.4014C12.7172 24.3049 12.9616 24.1327 13.1637 23.8709C13.3658 23.6125 13.5157 23.2542 13.62 22.7891C13.7243 22.324 13.7764 21.7211 13.7764 20.9736V9.4257H15.8981L15.8916 20.853ZM27.5952 24.205C27.3736 24.677 27.0607 25.0939 26.6761 25.428C26.2459 25.7932 25.7505 26.0723 25.2226 26.2445C24.6522 26.4374 24.0134 26.5339 23.3062 26.5339C20.1741 26.5339 18.5217 25.2282 18.3523 22.61H20.412C20.4218 24.0879 21.38 24.8286 23.2834 24.8286C23.707 24.8286 24.0851 24.7804 24.4078 24.6804C24.7337 24.584 25.0042 24.4462 25.2193 24.2739C25.6397 23.9535 25.8874 23.4402 25.8842 22.8925C25.8939 22.6513 25.8483 22.4136 25.7571 22.1931C25.6723 22.014 25.5061 21.8589 25.2617 21.7211C24.9357 21.5523 24.5968 21.418 24.2448 21.3215C23.681 21.1493 23.1139 20.9839 22.5435 20.8289C21.8624 20.6497 21.2725 20.4706 20.7803 20.2914C20.3436 20.1467 19.933 19.9297 19.5614 19.6438C19.2518 19.3992 19.0074 19.0753 18.8542 18.7033C18.701 18.3277 18.626 17.8558 18.626 17.2873C18.626 16.7878 18.7271 16.3227 18.9259 15.8921C19.1279 15.4649 19.4115 15.0928 19.7896 14.7759C20.1611 14.4624 20.6141 14.2178 21.1421 14.0386C21.7157 13.8526 22.3154 13.763 22.9151 13.7699C25.9428 13.7699 27.4844 14.9068 27.53 17.184H25.5028C25.4311 16.0471 24.6196 15.4752 23.0683 15.4752C22.7228 15.4752 22.4066 15.5131 22.1101 15.5855C21.8135 15.6578 21.5625 15.7612 21.3442 15.899C21.1258 16.0333 20.9596 16.2021 20.8357 16.402C20.7151 16.6087 20.65 16.8498 20.6565 17.0944C20.6565 17.3321 20.6858 17.5285 20.7412 17.6801C20.7966 17.8351 20.9303 17.9763 21.1454 18.1073C21.3572 18.2382 21.6733 18.3691 22.0905 18.4966C22.5077 18.624 23.078 18.7825 23.8016 18.9685C24.499 19.1477 25.1085 19.3303 25.6234 19.5232C26.1351 19.7161 26.5621 19.9469 26.9075 20.2191C27.2497 20.4878 27.5007 20.822 27.6669 21.2113C27.8299 21.6006 27.9146 22.0898 27.9146 22.6754C27.9211 23.2301 27.8103 23.7365 27.5952 24.205Z" fill="white"/>
</g>
<defs>
<clipPath id="clip0_32_48">
<rect width="35" height="37" fill="white"/>
</clipPath>
</defs>
</svg>
