<svg width="37" height="38" viewBox="0 0 37 38" fill="none" xmlns="http://www.w3.org/2000/svg">
<path d="M37 19.3842C37 17.2331 33.9305 15.1945 29.2244 13.9304C30.3104 9.7209 29.8278 6.37185 27.701 5.29963C27.2108 5.04812 26.6376 4.92898 26.0116 4.92898V6.40495C26.3585 6.40495 26.6376 6.46451 26.8714 6.57703C27.8971 7.09329 28.342 9.05903 27.9951 11.5874C27.9122 12.2095 27.7764 12.8648 27.6105 13.5333C26.1323 13.2156 24.5183 12.9707 22.8214 12.8118C21.8033 11.5874 20.7475 10.4754 19.6841 9.50248C22.1427 7.49703 24.4505 6.39833 26.0192 6.39833V4.92236C23.9452 4.92236 21.2301 6.21962 18.4849 8.46997C15.7397 6.23286 13.0247 4.94884 10.9507 4.94884V6.4248C12.5118 6.4248 14.8272 7.51688 17.2858 9.5091C16.2299 10.482 15.1741 11.5874 14.171 12.8118C12.4666 12.9707 10.8526 13.2156 9.37444 13.5399C9.20098 12.878 9.07277 12.236 8.98227 11.6205C8.6278 9.09213 9.06523 7.12638 10.0834 6.60351C10.3096 6.48437 10.6038 6.43142 10.9507 6.43142V4.95546C10.3172 4.95546 9.74399 5.07459 9.24623 5.3261C7.12699 6.39833 6.65185 9.74076 7.74541 13.937C3.05442 15.2078 0 17.2397 0 19.3842C0 21.5352 3.06951 23.5738 7.77558 24.8379C6.68956 29.0474 7.17224 32.3965 9.29902 33.4687C9.78924 33.7202 10.3624 33.8393 10.9959 33.8393C13.0699 33.8393 15.785 32.5421 18.5302 30.2917C21.2754 32.5288 23.9904 33.8129 26.0644 33.8129C26.6979 33.8129 27.2711 33.6937 27.7689 33.4422C29.8881 32.37 30.3632 29.0276 29.2697 24.8313C33.9456 23.5672 37 21.5286 37 19.3842ZM27.1806 14.9695C26.9015 15.8233 26.5546 16.7036 26.1625 17.5839C25.8532 17.0544 25.5289 16.5249 25.1745 15.9954C24.8276 15.4659 24.458 14.9496 24.0885 14.4466C25.1594 14.5856 26.1926 14.7577 27.1806 14.9695ZM23.7265 22.0184C23.1382 22.9119 22.5349 23.7591 21.9089 24.5467C20.7852 24.6328 19.6464 24.6791 18.5 24.6791C17.3612 24.6791 16.2224 24.6328 15.1062 24.5533C14.4802 23.7657 13.8693 22.9251 13.2811 22.0382C12.7079 21.1712 12.1875 20.2909 11.7124 19.404C12.18 18.5171 12.7079 17.6302 13.2735 16.7632C13.8618 15.8696 14.4651 15.0225 15.0911 14.2348C16.2148 14.1488 17.3537 14.1025 18.5 14.1025C19.6388 14.1025 20.7776 14.1488 21.8938 14.2282C22.5198 15.0158 23.1307 15.8564 23.7189 16.7433C24.2921 17.6104 24.8125 18.4906 25.2876 19.3775C24.8125 20.2644 24.2921 21.1513 23.7265 22.0184ZM26.1625 21.158C26.5697 22.0449 26.9166 22.9318 27.2032 23.7922C26.2153 24.004 25.1745 24.1827 24.096 24.3217C24.4656 23.812 24.8351 23.2892 25.182 22.7531C25.5289 22.2236 25.8532 21.6875 26.1625 21.158ZM18.5151 28.2201C17.8137 27.5847 17.1123 26.8765 16.4185 26.1021C17.0972 26.1286 17.7911 26.1484 18.4925 26.1484C19.2014 26.1484 19.9028 26.1352 20.5891 26.1021C19.9103 26.8765 19.2089 27.5847 18.5151 28.2201ZM12.904 24.3217C11.8331 24.1827 10.7998 24.0106 9.81186 23.7988C10.0909 22.945 10.4378 22.0647 10.83 21.1844C11.1392 21.7139 11.4635 22.2434 11.818 22.7729C12.1724 23.3024 12.5344 23.8187 12.904 24.3217ZM18.4774 10.5482C19.1788 11.1836 19.8801 11.8918 20.574 12.6662C19.8952 12.6397 19.2014 12.6199 18.5 12.6199C17.7911 12.6199 17.0897 12.6331 16.4034 12.6662C17.0821 11.8918 17.7835 11.1836 18.4774 10.5482ZM12.8965 14.4466C12.5269 14.9563 12.1574 15.4791 11.8104 16.0153C11.4635 16.5447 11.1392 17.0742 10.83 17.6037C10.4227 16.7168 10.0758 15.8299 9.78924 14.9695C10.7772 14.7643 11.818 14.5856 12.8965 14.4466ZM6.07114 22.7332C3.40135 21.7338 1.67428 20.4233 1.67428 19.3842C1.67428 18.345 3.40135 17.0279 6.07114 16.0351C6.71973 15.7902 7.42866 15.5718 8.16021 15.3666C8.59009 16.6639 9.15573 18.0141 9.85711 19.3974C9.16327 20.7741 8.60518 22.1177 8.18284 23.4083C7.4362 23.2031 6.72727 22.9781 6.07114 22.7332ZM10.1286 32.1913C9.10294 31.675 8.65797 29.7093 9.00489 27.181C9.08785 26.5588 9.22361 25.9035 9.38952 25.2351C10.8677 25.5528 12.4817 25.7976 14.1786 25.9565C15.1967 27.181 16.2525 28.2929 17.3159 29.2658C14.8573 31.2713 12.5495 32.37 10.9808 32.37C10.6415 32.3634 10.3549 32.3038 10.1286 32.1913ZM28.0177 27.1479C28.3722 29.6762 27.9348 31.6419 26.9166 32.1648C26.6904 32.2839 26.3962 32.3369 26.0493 32.3369C24.4882 32.3369 22.1729 31.2448 19.7142 29.2526C20.7701 28.2797 21.8259 27.1743 22.829 25.9499C24.5334 25.791 26.1474 25.5461 27.6256 25.2218C27.799 25.8903 27.9348 26.5323 28.0177 27.1479ZM30.9213 22.7332C30.2727 22.9781 29.5638 23.1965 28.8322 23.4017C28.4024 22.1044 27.8367 20.7542 27.1353 19.3709C27.8292 17.9942 28.3873 16.6506 28.8096 15.36C29.5563 15.5652 30.2652 15.7902 30.9289 16.0351C33.5987 17.0345 35.3257 18.345 35.3257 19.3842C35.3182 20.4233 33.5911 21.7404 30.9213 22.7332Z" fill="#61DAFB"/>
<path d="M18.4925 22.4089C20.396 22.4089 21.9391 21.0547 21.9391 19.3842C21.9391 17.7137 20.396 16.3594 18.4925 16.3594C16.589 16.3594 15.0459 17.7137 15.0459 19.3842C15.0459 21.0547 16.589 22.4089 18.4925 22.4089Z" fill="#61DAFB"/>
</svg>
