<svg width="50" height="50" viewBox="0 0 50 50" fill="none" xmlns="http://www.w3.org/2000/svg">
<path d="M0 43.5529C0 47.1139 2.88652 50 6.44707 50H43.5527C47.1139 50 50 47.1135 50 43.5529V6.44727C50 2.88613 47.1135 0 43.5529 0H6.44727C2.88613 0 0 2.88652 0 6.44707V43.5527V43.5529Z" fill="#563D7C"/>
<path d="M20.734 22.1168V15.0361H26.9666C27.5604 15.0361 28.1326 15.0855 28.6838 15.1846C29.235 15.2834 29.7227 15.46 30.1467 15.7145C30.5705 15.9689 30.9098 16.3223 31.1643 16.7744C31.4186 17.2268 31.5459 17.8063 31.5459 18.5127C31.5459 19.7848 31.1643 20.7035 30.401 21.2688C29.6379 21.8342 28.6627 22.1168 27.4754 22.1168H20.734ZM14.0771 9.86328V40.1367H28.7475C30.1043 40.1367 31.4258 39.9672 32.7119 39.6279C33.998 39.2887 35.1428 38.7658 36.1463 38.0592C37.1496 37.3525 37.9482 36.4408 38.5418 35.3244C39.1355 34.2078 39.4322 32.8863 39.4322 31.36C39.4322 29.466 38.9729 27.8479 38.0543 26.5053C37.1355 25.1625 35.7434 24.2227 33.8777 23.6855C35.2346 23.0355 36.2594 22.2016 36.952 21.184C37.6443 20.1664 37.9906 18.8945 37.9906 17.368C37.9906 15.9547 37.7574 14.7676 37.291 13.8064C36.8246 12.8455 36.1674 12.0752 35.3193 11.4957C34.4715 10.9162 33.4539 10.4992 32.2666 10.2449C31.0795 9.99043 29.765 9.86328 28.3234 9.86328H14.0771ZM20.734 34.9639V26.6535H27.9842C29.4258 26.6535 30.5848 26.9855 31.4611 27.65C32.3373 28.3143 32.7756 29.4236 32.7756 30.9783C32.7756 31.7699 32.6412 32.4199 32.3727 32.9287C32.1041 33.4375 31.7438 33.8404 31.2914 34.1371C30.8393 34.434 30.3162 34.6459 29.7227 34.7732C29.1289 34.9002 28.5072 34.9639 27.857 34.9639H20.734Z" fill="white"/>
</svg>
