<svg width="50" height="50" viewBox="0 0 50 50" fill="none" xmlns="http://www.w3.org/2000/svg">
<path d="M49.9158 14.7068C49.9154 13.8683 49.7137 13.1274 49.3057 12.4916C48.9049 11.8663 48.3047 11.3422 47.4996 10.9278C40.8541 7.52209 34.2021 4.12677 27.5588 0.717565C25.7678 -0.20144 24.0312 -0.167936 22.2535 0.764262C19.6084 2.15076 6.36523 8.89435 2.41895 10.9259C0.79375 11.7621 0.00292969 13.0419 0.00253906 14.7052C0 21.5544 0.00253906 28.4033 0 35.2527C0.000390625 36.0727 0.193555 36.7992 0.583594 37.4255C0.98457 38.0697 1.59316 38.6082 2.4168 39.032C6.36328 41.0635 19.6082 47.8066 22.2527 49.1935C24.0312 50.1262 25.7678 50.1595 27.5594 49.2402C34.2029 45.8308 40.8553 42.4356 47.5018 39.0299C48.3254 38.6063 48.934 38.0675 49.335 37.4238C49.7244 36.7975 49.918 36.071 49.9184 35.2507C49.9184 35.2507 49.9184 21.5561 49.9158 14.7068Z" fill="#5C8DBC"/>
<path d="M25.0355 24.9124L0.583593 37.4257C0.98457 38.0699 1.59316 38.6084 2.4168 39.0321C6.36328 41.0637 19.6082 47.8068 22.2527 49.1936C24.0312 50.1263 25.7678 50.1597 27.5594 49.2403C34.2029 45.8309 40.8553 42.4358 47.5018 39.03C48.3254 38.6065 48.934 38.0676 49.335 37.4239L25.0355 24.9124Z" fill="#1A4674"/>
<path d="M17.7932 28.6189C19.216 30.8267 21.8908 32.3158 24.9592 32.3158C28.0465 32.3158 30.7365 30.8078 32.1521 28.5764L25.0355 24.9124L17.7932 28.6189Z" fill="#1A4674"/>
<path d="M49.9158 14.7069C49.9154 13.8685 49.7137 13.1276 49.3057 12.4917L25.0355 24.9123L49.335 37.4239C49.7244 36.7976 49.918 36.0711 49.9184 35.2509C49.9184 35.2509 49.9184 21.5562 49.9158 14.7069Z" fill="#1B598E"/>
<path d="M48.5797 25.8066H46.6809V27.4946H44.7816V25.8066H42.883V24.1191H44.7816V22.4314H46.6809V24.1191H48.5797V25.8066ZM41.651 25.8066H39.7523V27.4946H37.8535V25.8066H35.9547V24.1191H37.8535V22.4314H39.7523V24.1191H41.651V25.8066Z" fill="white"/>
<path d="M32.1521 28.5763C30.7365 30.8077 28.0465 32.3157 24.9592 32.3157C21.8908 32.3157 19.216 30.8266 17.7932 28.6189C17.0784 27.5111 16.703 26.256 16.7045 24.979C16.7045 20.9271 20.4004 17.6424 24.9592 17.6424C28.0078 17.6424 30.6686 19.1129 32.0984 21.2981L39.3135 17.6054C36.4457 13.2055 31.0916 10.2454 24.9592 10.2454C15.8037 10.2454 8.38203 16.8419 8.38203 24.979C8.38203 27.6485 9.18105 30.1519 10.5775 32.3112C13.4381 36.7344 18.8074 39.7127 24.9592 39.7127C31.1223 39.7127 36.5 36.7224 39.3564 32.2862L32.1521 28.5763Z" fill="white"/>
</svg>
