<svg width="37" height="37" viewBox="0 0 37 37" fill="none" xmlns="http://www.w3.org/2000/svg">
<g clip-path="url(#clip0_32_54)">
<path d="M3.09815 33.124L0 0.0620728L37 0.128513L33.724 33.124L18.6396 36.9379L3.09815 33.124Z" fill="url(#paint0_angular_32_54)"/>
<path d="M18.6396 33.7449V3.21082L33.8765 3.25511L31.1594 30.574L18.6396 33.7449Z" fill="url(#paint1_angular_32_54)"/>
<path d="M30.0926 7.11365H6.65344L7.28841 11.1048H18.4111L7.46625 15.2072L8.10092 19.0654H24.2267L23.6424 24.4536L18.1825 25.3851L13.2308 24.2764L12.8497 21.2163H8.30412L8.91343 27.5805L18.665 29.9531L28.0105 27.3588L29.204 14.9187H19.325L30.0923 11.0162L30.0926 7.11365Z" fill="black"/>
</g>
<defs>
<radialGradient id="paint0_angular_32_54" cx="0" cy="0" r="1" gradientUnits="userSpaceOnUse" gradientTransform="translate(18.5 18.5) rotate(90) scale(18.4379 18.5)">
<stop stop-color="white"/>
<stop offset="0.9998" stop-color="white" stop-opacity="0.682292"/>
<stop offset="0.9999" stop-color="white" stop-opacity="0"/>
<stop offset="1" stop-color="white" stop-opacity="0.719051"/>
</radialGradient>
<radialGradient id="paint1_angular_32_54" cx="0" cy="0" r="1" gradientUnits="userSpaceOnUse" gradientTransform="translate(26.2581 18.4778) rotate(90) scale(15.267 7.61842)">
<stop stop-color="white"/>
<stop offset="0.9998" stop-color="white" stop-opacity="0.682292"/>
<stop offset="0.9999" stop-color="white" stop-opacity="0"/>
<stop offset="1" stop-color="white" stop-opacity="0.719051"/>
</radialGradient>
<clipPath id="clip0_32_54">
<rect width="37" height="37" fill="white"/>
</clipPath>
</defs>
</svg>
