<svg width="37" height="40" viewBox="0 0 40 48" fill="none" xmlns="http://www.w3.org/2000/svg">
<g filter="url(#filter0_d_78_41)">
<path d="M13.3333 40C17.0133 40 20 37.0134 20 33.3334V26.6667H13.3333C9.65333 26.6667 6.66666 29.6534 6.66666 33.3334C6.66666 37.0134 9.65333 40 13.3333 40Z" fill="#0ACF83"/>
<path d="M6.66666 20C6.66666 16.32 9.65333 13.3333 13.3333 13.3333H20V26.6666H13.3333C9.65333 26.6666 6.66666 23.68 6.66666 20Z" fill="#A259FF"/>
<path d="M6.66666 6.66667C6.66666 2.98667 9.65333 0 13.3333 0H20V13.3333H13.3333C9.65333 13.3333 6.66666 10.3467 6.66666 6.66667Z" fill="#F24E1E"/>
<path d="M20 0H26.6667C30.3467 0 33.3333 2.98667 33.3333 6.66667C33.3333 10.3467 30.3467 13.3333 26.6667 13.3333H20V0Z" fill="#FF7262"/>
<path d="M33.3333 20C33.3333 23.68 30.3467 26.6666 26.6667 26.6666C22.9867 26.6666 20 23.68 20 20C20 16.32 22.9867 13.3333 26.6667 13.3333C30.3467 13.3333 33.3333 16.32 33.3333 20Z" fill="#1ABCFE"/>
</g>
<defs>
<filter id="filter0_d_78_41" x="-4" y="0" width="48" height="48" filterUnits="userSpaceOnUse" color-interpolation-filters="sRGB">
<feFlood flood-opacity="0" result="BackgroundImageFix"/>
<feColorMatrix in="SourceAlpha" type="matrix" values="0 0 0 0 0 0 0 0 0 0 0 0 0 0 0 0 0 0 127 0" result="hardAlpha"/>
<feOffset dy="4"/>
<feGaussianBlur stdDeviation="2"/>
<feComposite in2="hardAlpha" operator="out"/>
<feColorMatrix type="matrix" values="0 0 0 0 0 0 0 0 0 0 0 0 0 0 0 0 0 0 0.25 0"/>
<feBlend mode="normal" in2="BackgroundImageFix" result="effect1_dropShadow_78_41"/>
<feBlend mode="normal" in="SourceGraphic" in2="effect1_dropShadow_78_41" result="shape"/>
</filter>
</defs>
</svg>
