<svg width="37" height="40" viewBox="0 0 37 50" fill="none" xmlns="http://www.w3.org/2000/svg">
<g clip-path="url(#clip0_27_552)">
<path d="M35.4413 39.4269H35.1821V39.3215H35.8801V39.4269H35.6224V39.9526H35.4413V39.4269V39.4269ZM36.8334 39.4543H36.8293L36.5723 39.9528H36.4547L36.1995 39.4543H36.1965V39.9528H36.0256V39.3217H36.277L36.5136 39.7686L36.7495 39.3217H37V39.9528H36.8332L36.8334 39.4543V39.4543Z" fill="#E76F00"/>
<path d="M12.233 26.5224C12.233 26.5224 10.4292 27.2844 13.5166 27.5423C17.257 27.8523 19.1686 27.8078 23.2905 27.2411C23.2905 27.2411 24.3742 27.7347 25.8876 28.1623C16.6474 31.0393 4.97529 27.9957 12.233 26.5224ZM11.1039 22.7681C11.1039 22.7681 9.08076 23.856 12.1705 24.0882C16.166 24.3876 19.3214 24.4121 24.7814 23.6483C24.7814 23.6483 25.5367 24.2045 26.7242 24.5087C15.5522 26.882 3.10868 24.6959 11.1039 22.7681" fill="#5382A1"/>
<path d="M20.6225 16.3994C22.8993 18.3038 20.0244 20.0175 20.0244 20.0175C20.0244 20.0175 25.8053 17.8494 23.1504 15.1344C20.6707 12.6024 18.7691 11.3445 29.0636 7.00708C29.0637 7.00699 12.9047 9.93891 20.6225 16.3994" fill="#E76F00"/>
<path d="M32.8434 29.2993C32.8434 29.2993 34.1782 30.0984 31.3733 30.7165C26.0398 31.8903 9.17453 32.2447 4.48943 30.7633C2.80526 30.231 5.96356 29.4923 6.95704 29.3373C7.99314 29.1741 8.58524 29.2045 8.58524 29.2045C6.71227 28.2459 -3.52088 31.0865 3.38731 31.9002C22.2269 34.1198 37.7303 30.9007 32.8434 29.2993V29.2993ZM13.1004 18.8782C13.1004 18.8782 4.52162 20.3585 10.0624 20.896C12.4019 21.1235 17.0656 21.0721 21.4097 20.8076C24.9599 20.5901 28.525 20.1276 28.525 20.1276C28.525 20.1276 27.2731 20.5171 26.3674 20.9662C17.6558 22.6308 0.826696 21.8564 5.67159 20.1538C9.76892 18.7149 13.1004 18.8782 13.1004 18.8782V18.8782ZM28.4896 25.1274C37.3453 21.7843 33.2509 18.5715 30.3928 19.0044C29.6924 19.1103 29.38 19.2021 29.38 19.2021C29.38 19.2021 29.6402 18.9062 30.1366 18.7781C35.7905 17.334 40.1387 23.0371 28.3115 25.296C28.3115 25.296 28.4488 25.2071 28.4896 25.1274Z" fill="#5382A1"/>
<path d="M23.1504 0.00244141C23.1504 0.00244141 28.0549 3.56655 18.4988 9.04738C10.8358 13.4438 16.7514 15.9505 18.4956 18.8147C14.0227 15.8827 10.7401 13.3018 12.9423 10.8997C16.1746 7.37356 25.1292 5.66396 23.1504 0.00244141" fill="#E76F00"/>
<path d="M13.9706 34.1864C22.4709 34.5817 35.5242 33.9671 35.8332 31.0452C35.8332 31.0452 35.2391 32.1528 28.8081 33.0326C21.553 34.0244 12.6046 33.9087 7.29723 33.273C7.29748 33.2728 8.38383 33.9262 13.9706 34.1864" fill="#5382A1"/>
<path d="M12.5775 45.3517C11.7756 45.857 10.9287 46.1406 10.1686 46.1406C9.08382 46.1406 8.4977 45.6681 8.4977 44.9101C8.4977 44.0902 9.1258 43.4907 11.6451 43.4907H12.5773L12.5775 45.3517V45.3517ZM14.7901 47.1654V41.5513C14.7901 40.117 13.6642 39.1707 10.9495 39.1707C9.36472 39.1707 7.97647 39.455 6.84813 39.8176L7.17382 40.8114C8.06222 40.5745 9.21218 40.354 10.3409 40.354C11.9047 40.354 12.5775 40.8114 12.5775 41.7571V42.4667H11.797C7.99746 42.4667 6.28352 43.5382 6.28352 45.1464C6.28352 46.5345 7.413 47.3234 9.53965 47.3234C10.9067 47.3234 11.9271 46.9133 12.881 46.3133L13.0542 47.1655L14.7901 47.1654V47.1654ZM22.1745 47.1654H19.4149L16.0936 39.3129H18.5038L20.5645 44.1374L21.0226 45.5884C22.0652 43.4905 22.8027 41.3622 23.1715 39.3129H25.5159C24.8877 41.8986 23.7574 44.7368 22.1745 47.1654V47.1654ZM32.7612 45.3517C31.9578 45.857 31.1095 46.1406 30.3493 46.1406C29.2664 46.1406 28.6788 45.6681 28.6788 44.9101C28.6788 44.0902 29.3081 43.4907 31.8273 43.4907H32.7612V45.3517ZM34.9736 47.1654V41.5513C34.9736 40.117 33.845 39.1707 31.1333 39.1707C29.5474 39.1707 28.1587 39.455 27.0308 39.8176L27.3562 40.8114C28.2448 40.5745 29.3969 40.354 30.5248 40.354C32.0874 40.354 32.7612 40.8114 32.7612 41.7571V42.4667H31.9793C28.1788 42.4667 26.4655 43.5382 26.4655 45.1464C26.4655 46.5345 27.5941 47.3234 29.7203 47.3234C31.0882 47.3234 32.1083 46.9133 33.0637 46.3133L33.2375 47.1655L34.9736 47.1654V47.1654ZM3.85739 48.4988C3.22662 49.1679 2.20782 49.6972 1.09246 49.9966L0 49.0627C0.848956 48.7462 1.57705 48.2351 1.91534 47.7591C2.20795 47.3357 2.32906 46.79 2.32906 45.4851V36.5203H4.67988V45.3622C4.67975 47.1068 4.48777 47.8115 3.85739 48.4988" fill="#E76F00"/>
</g>
<defs>
<clipPath id="clip0_27_552">
<rect width="37" height="50" fill="white"/>
</clipPath>
</defs>
</svg>
