<svg width="50" height="50" viewBox="0 0 50 50" fill="none" xmlns="http://www.w3.org/2000/svg">
<path d="M46.0242 38.5331C43.3058 38.4643 41.199 38.7405 39.432 39.4998C38.9223 39.7067 38.1066 39.7069 38.0387 40.3629C38.3105 40.639 38.3445 41.0878 38.5824 41.4674C38.9906 42.1576 39.7037 43.0898 40.3494 43.5733C41.0629 44.1255 41.7767 44.6776 42.524 45.1609C43.8494 45.9895 45.3447 46.4726 46.6359 47.3012C47.3838 47.7841 48.1308 48.4059 48.8785 48.9235C49.2523 49.1993 49.49 49.6485 49.966 49.8209V49.7176C49.7279 49.4067 49.66 48.9581 49.4223 48.6128C49.0828 48.2676 48.7426 47.9569 48.4027 47.6117C47.4174 46.2657 46.1941 45.0919 44.8689 44.1255C43.7816 43.3659 41.4027 42.3305 40.9611 41.0531C40.9611 41.0531 40.9269 41.0188 40.8932 40.9843C41.6406 40.9152 42.524 40.639 43.2379 40.4319C44.3932 40.121 45.4465 40.1902 46.6359 39.8795C47.1795 39.7414 47.7232 39.5688 48.2668 39.3962V39.0857C47.6555 38.4643 47.2137 37.6359 46.568 37.049C44.835 35.5298 42.9318 34.0457 40.9611 32.8031C39.9076 32.1127 38.5482 31.6639 37.4269 31.0772C37.0195 30.8698 36.3396 30.7665 36.1019 30.4212C35.49 29.6619 35.1502 28.661 34.7086 27.7634C33.7234 25.8646 32.7717 23.7591 31.9221 21.7572C31.3107 20.4108 30.9369 19.0644 30.1892 17.822C26.6892 11.9536 22.8834 8.39818 17.0389 4.91157C15.7814 4.18678 14.2863 3.87608 12.6892 3.49652C11.84 3.4618 10.9902 3.39295 10.1408 3.35823C9.59706 3.11657 9.05331 2.46083 8.57753 2.15013C6.64101 0.907303 1.6455 -1.78489 0.218349 1.77057C-0.699229 4.01417 1.57772 6.22324 2.35897 7.36269C2.9371 8.15652 3.68436 9.05392 4.09218 9.95152C4.33007 10.538 4.39784 11.1598 4.63573 11.781C5.17968 13.2994 5.68905 14.9913 6.40292 16.4067C6.77675 17.1315 7.18436 17.8908 7.66015 18.5467C7.93202 18.9263 8.40761 19.0991 8.50976 19.7203C8.03417 20.4108 7.99999 21.4465 7.72792 22.3093C6.50468 26.21 6.98065 31.0427 8.71347 33.9077C9.25702 34.7703 10.5484 36.6695 12.2814 35.9443C13.8107 35.3231 13.4709 33.3555 13.9123 31.6295C14.0146 31.2149 13.9467 30.9391 14.1504 30.6629V30.7321C14.6262 31.6984 15.1017 32.6307 15.5435 33.5971C16.5971 35.2884 18.4318 37.049 19.9609 38.2228C20.7767 38.8438 21.4223 39.9141 22.4418 40.2938V40.19H22.3736C22.1697 39.8793 21.8639 39.7414 21.5922 39.4996C20.9807 38.8786 20.3008 38.1191 19.8252 37.4286C18.3982 35.4953 17.1406 33.3553 16.0193 31.146C15.4758 30.0762 14.9998 28.9024 14.5582 27.8324C14.3541 27.4177 14.3541 26.7967 14.0144 26.5898C13.5047 27.3491 12.7572 28.005 12.3834 28.9369C11.7381 30.4212 11.6699 32.2508 11.432 34.1491C11.2961 34.184 11.3639 34.1491 11.2959 34.2186C10.2088 33.942 9.83495 32.8031 9.42694 31.8365C8.40741 29.3857 8.23749 25.4505 9.12128 22.62C9.35917 21.8951 10.3787 19.6169 9.97089 18.9265C9.76698 18.2706 9.0871 17.8908 8.71347 17.3732C8.27186 16.7172 7.79589 15.8891 7.49022 15.1639C6.6746 13.2308 6.26679 11.0906 5.38339 9.15749C4.97558 8.25989 4.26229 7.32817 3.68436 6.49962C3.03886 5.5677 2.32518 4.91157 1.81542 3.80703C1.64569 3.42748 1.40761 2.80606 1.67948 2.39179C1.74745 2.11561 1.88319 2.01223 2.15526 1.94319C2.59706 1.56324 3.85448 2.04656 4.29589 2.2537C5.55331 2.77114 6.60663 3.25486 7.66015 3.97965C8.13573 4.32487 8.6455 4.98081 9.25702 5.15342H9.97069C11.0582 5.39489 12.2812 5.22247 13.3008 5.53298C15.1019 6.11967 16.7328 6.98274 18.1941 7.91486C22.6457 10.7799 26.3152 14.8532 28.7961 19.7203C29.2039 20.5139 29.3736 21.2393 29.7475 22.0675C30.4613 23.7591 31.3447 25.4851 32.058 27.142C32.7717 28.7641 33.4512 30.4212 34.4707 31.7676C34.9805 32.4922 37.0191 32.8722 37.9367 33.2519C38.6164 33.5624 39.6699 33.8388 40.2814 34.2184C41.4367 34.9429 42.592 35.7719 43.6795 36.5655C44.2232 36.9798 45.9221 37.8429 46.0242 38.5331V38.5331Z" fill="#B2F0FF"/>
<path d="M11.3645 8.53589C10.7869 8.53589 10.3793 8.60533 9.97148 8.7087V8.77775H10.0395C10.3115 9.33011 10.7869 9.70987 11.1266 10.193C11.3986 10.7452 11.6363 11.2977 11.9084 11.8501C11.9422 11.8154 11.9762 11.781 11.9762 11.781C12.4521 11.4356 12.6898 10.8834 12.6898 10.0549C12.4859 9.81344 12.452 9.57178 12.282 9.33011C12.0783 8.98469 11.6363 8.81227 11.3645 8.53589V8.53589Z" fill="#B2F0FF"/>
</svg>
