<svg width="37" height="37" viewBox="0 0 37 37" fill="none" xmlns="http://www.w3.org/2000/svg">
<path d="M16.8348 0.469687C17.8408 -0.0531674 19.1511 -0.0555291 20.1563 0.469687C25.213 3.06415 30.2714 5.65454 35.3273 8.25058C36.2782 8.73696 36.9143 9.69791 36.9046 10.6928V26.3021C36.9117 27.3382 36.2128 28.3222 35.2095 28.7975C30.1694 31.3777 25.1318 33.961 20.0925 36.5411C19.0657 37.0742 17.7291 37.0332 16.7344 36.4564C15.2233 35.661 13.7097 34.8696 12.1985 34.075C11.8897 33.9078 11.5416 33.7748 11.3236 33.5029C11.5163 33.267 11.861 33.2376 12.141 33.1347C12.7718 32.9525 13.351 32.6602 13.9305 32.3765C14.077 32.2855 14.2559 32.3204 14.3964 32.4019C15.6885 33.0746 16.9692 33.7668 18.2656 34.4331C18.5422 34.578 18.8222 34.3856 19.0586 34.2659C24.0046 31.7277 28.9566 29.1991 33.9016 26.6602C34.0849 26.5801 34.1862 26.4035 34.1713 26.2213C34.1747 21.0721 34.1721 15.922 34.173 10.7729C34.194 10.5661 34.0622 10.376 33.8563 10.2914C28.8336 7.723 23.8135 5.15071 18.7917 2.58171C18.7047 2.52739 18.6017 2.49825 18.4961 2.49811C18.3905 2.49797 18.2873 2.52684 18.2002 2.58092C13.1784 5.15071 8.15918 7.72536 3.13738 10.2936C2.93219 10.3783 2.79448 10.5653 2.8189 10.7729C2.81977 15.922 2.8189 21.0721 2.8189 26.2221C2.8102 26.311 2.8317 26.4002 2.88053 26.4777C2.92936 26.5552 3.00317 26.6172 3.09201 26.6555C4.4321 27.3455 5.77392 28.0306 7.11488 28.7183C7.87032 29.0875 8.79786 29.3069 9.63018 29.024C10.3647 28.7848 10.8795 28.1042 10.8655 27.3961C10.8724 22.277 10.862 17.1571 10.8707 12.0387C10.8524 11.8115 11.0898 11.6237 11.3331 11.6451C11.977 11.6412 12.6218 11.6373 13.2656 11.6467C13.5344 11.6412 13.7194 11.8859 13.6861 12.1148C13.6835 17.2664 13.6931 22.418 13.6818 27.5696C13.6835 28.9425 13.0623 30.4364 11.6637 31.1082C9.94071 31.9186 7.81108 31.7468 6.10887 30.9696C4.63526 30.3018 3.22899 29.5136 1.78154 28.7982C0.775679 28.3254 0.0802021 27.3376 0.0872826 26.3022V10.6928C0.0767341 9.67731 0.738109 8.69891 1.71868 8.21961C6.75796 5.63735 11.7964 3.05313 16.8348 0.469687Z" fill="#8CC84B"/>
<path d="M21.231 11.2823C23.4289 11.1539 25.7818 11.2062 27.7595 12.1893C29.2908 12.9427 30.1397 14.5239 30.1668 16.0686C30.124 16.2769 29.8841 16.3919 29.665 16.3776C29.0274 16.3768 28.3895 16.3854 27.7519 16.3736C27.4814 16.3831 27.3242 16.1566 27.2902 15.9395C27.107 15.2004 26.6631 14.4684 25.8969 14.1119C24.7208 13.5772 23.3572 13.6041 22.0748 13.6153C21.1386 13.6604 20.1318 13.734 19.3387 14.2339C18.7297 14.6126 18.5448 15.377 18.7621 15.9926C18.967 16.4346 19.529 16.5773 19.9888 16.7087C22.6375 17.3377 25.4442 17.2751 28.0423 18.1029C29.118 18.4404 30.1702 19.0964 30.5384 20.119C31.02 21.4896 30.8089 23.1278 29.735 24.2281C28.8641 25.1336 27.5957 25.6264 26.3306 25.894C24.6476 26.2348 22.901 26.2434 21.1919 26.0922C19.5848 25.9258 17.9123 25.5424 16.6716 24.5481C15.6107 23.7117 15.0925 22.4084 15.144 21.1506C15.1563 20.9381 15.3892 20.79 15.6133 20.8075C16.2555 20.8027 16.8976 20.8012 17.5398 20.8083C17.7963 20.7916 17.9864 20.9929 17.9996 21.2124C18.1181 21.9165 18.4095 22.6556 19.0858 23.0731C20.3909 23.8377 22.0285 23.7853 23.5229 23.8067C24.761 23.7568 26.1508 23.7417 27.1612 22.9987C27.6942 22.5749 27.8522 21.8659 27.7081 21.2559C27.552 20.7409 26.9587 20.501 26.4492 20.344C23.8345 19.593 20.9964 19.8655 18.4069 19.0162C17.3557 18.6789 16.3391 18.0411 15.9353 17.0605C15.3717 15.6726 15.6299 13.9559 16.8164 12.8927C17.9733 11.8352 19.6433 11.428 21.231 11.2822V11.2823Z" fill="#8CC84B"/>
</svg>
